<svg xmlns="http://www.w3.org/2000/svg" viewBox="0 0 512 512">
  <path d="M464.4 371.3c-1.3-1.6-2.6-3.1-4-4.5l-2.4-2.3c-13.6-12.8-31.5-22.1-51.5-27.1-12.5-17.7-28-33.8-46-47.5-17.5-13.3-36.8-24.1-57.3-32 5.1-13.1 8.2-27.2 9-41.9.8-14.7-1.1-29.4-5.6-43.2-4.4-13.9-11.2-26.7-19.9-37.9-8.7-11.2-19.1-20.7-30.8-28.1s-24.6-12.6-38-15.5c-13.5-2.8-27.4-3.4-41.3-1.6s-27.4 5.9-40 12.1c-12.6 6.2-24 14.5-33.8 24.5l-2.3 2.4c-1.4 1.4-2.9 2.7-4.5 4-48.4 43.1-81.2 101.4-91.1 163.6-1 6.3-1.5 12.7-1.4 19.1.1 6.4.8 12.8 2.1 19.1l.2.8c1.3 5.4 3 10.7 5.1 15.9 2.1 5.2 4.7 10.2 7.7 15.1 2.9 4.8 6.3 9.4 10 13.7l2.6 3.1c1.3 1.6 2.6 3.1 4 4.5l2.4 2.3c13.6 12.8 31.5 22.1 51.5 27.1 12.5 17.7 28 33.8 46 47.5 17.5 13.3 36.8 24.1 57.3 32-5.1 13.1-8.2 27.2-9 41.9-.8 14.7 1.1 29.4 5.6 43.2 4.4 13.9 11.2 26.7 19.9 37.9 8.7 11.2 19.1 20.7 30.8 28.1s24.6 12.6 38 15.5c13.5 2.8 27.4 3.4 41.3 1.6s27.4-5.9 40-12.1c12.6-6.2 24-14.5 33.8-24.5l2.3-2.4c1.4-1.4 2.9-2.7 4.5-4 48.4-43.1 81.2-101.4 91.1-163.6 1-6.3 1.5-12.7 1.4-19.1-.1-6.4-.8-12.8-2.1-19.1l-.2-.8c-1.3-5.4-3-10.7-5.1-15.9-2.1-5.2-4.7-10.2-7.7-15.1-2.9-4.8-6.3-9.4-10-13.7l-2.6-3.1zM232.4 69c11-1.4 22.1-.9 32.9 1.4 10.7 2.3 20.9 6.2 30.1 11.4 9.3 5.2 17.4 11.9 24.2 19.9s12.1 17.2 15.5 27.1c3.5 10 5.1 20.5 4.6 31-.5 10.6-2.9 20.9-7.1 30.5-20.6-1.9-42-1.9-63 0-10.7-5.1-22.3-7.7-34.1-7.7-11.8 0-23.4 2.6-34.1 7.7-20.6-1.9-42-1.9-63 0-4.2-9.6-6.6-19.9-7.1-30.5-.5-10.5 1.1-21 4.6-31 3.5-10 8.7-19.1 15.5-27.1s14.9-14.7 24.2-19.9c9.3-5.2 19.4-9.1 30.1-11.4s21.9-2.8 32.9-1.4zM42.3 358.5c-1.6-4.5-2.8-9.1-3.6-13.7-.8-4.6-1.1-9.3-1-14s.6-9.4 1.7-14.1 2.7-9.3 4.8-13.7c10-21.2 25.1-39.7 43.8-54 13.9-10.6 29.7-18.4 46.5-22.9 13.9 13.5 25.9 29.2 35.5 46.4 9.6 17.2 16.3 35.7 20 55.1-16.3 11-29.3 26-37.4 43.2-8.1 17.3-11.1 36.6-8.7 55.6-13.9 5.8-26.6 14.1-37.3 24.5-10.7 10.4-19.2 22.5-25.1 35.9-13.3-10-25.1-21.2-35.1-33.8-2-2.5-3.8-5.1-5.6-7.7s-3.4-5.2-4.8-7.8zM256 461.3c-11 1.4-22.1.9-32.9-1.4-10.7-2.3-20.9-6.2-30.1-11.4-9.3-5.2-17.4-11.9-24.2-19.9s-12.1-17.2-15.5-27.1c-3.5-10-5.1-20.5-4.6-31 .5-10.6 2.9-20.9 7.1-30.5 20.6 1.9 42 1.9 63 0 10.7 5.1 22.3 7.7 34.1 7.7 11.8 0 23.4-2.6 34.1-7.7 20.6 1.9 42 1.9 63 0 4.2 9.6 6.6 19.9 7.1 30.5.5 10.5-1.1 21-4.6 31-3.5 10-8.7 19.1-15.5 27.1s-14.9 14.7-24.2 19.9c-9.3 5.2-19.4 9.1-30.1 11.4s-21.9 2.8-32.9 1.4zM469.7 153.5c1.6 4.5 2.8 9.1 3.6 13.7.8 4.6 1.1 9.3 1 14s-.6 9.4-1.7 14.1-2.7 9.3-4.8 13.7c-10 21.2-25.1 39.7-43.8 54-13.9 10.6-29.7 18.4-46.5 22.9-13.9-13.5-25.9-29.2-35.5-46.4-9.6-17.2-16.3-35.7-20-55.1 16.3-11 29.3-26 37.4-43.2 8.1-17.3 11.1-36.6 8.7-55.6 13.9-5.8 26.6-14.1 37.3-24.5 10.7-10.4 19.2-22.5 25.1-35.9 13.3 10 25.1 21.2 35.1 33.8 2 2.5 3.8 5.1 5.6 7.7s3.4 5.2 4.8 7.8z"/>
</svg>
